<?xml version="1.0" encoding="UTF-8"?>
<!DOCTYPE svg PUBLIC "-//W3C//DTD SVG 1.1//EN" "http://www.w3.org/Graphics/SVG/1.1/DTD/svg11.dtd">
<svg xmlns="http://www.w3.org/2000/svg" version="1.1" width="635px" height="393px" style="shape-rendering:geometricPrecision; text-rendering:geometricPrecision; image-rendering:optimizeQuality; fill-rule:evenodd; clip-rule:evenodd" xmlns:xlink="http://www.w3.org/1999/xlink">
<g><path style="opacity:0.999" fill="#e7e7e7" d="M 168.5,63.5 C 176.464,61.9609 181.464,65.1276 183.5,73C 181.533,80.9553 176.533,83.9553 168.5,82C 160.605,75.8444 160.605,69.6777 168.5,63.5 Z"/></g>
<g><path style="opacity:1" fill="#e68161" d="M 270.5,91.5 C 266.499,87.844 262.165,84.5107 257.5,81.5C 250.058,78.4296 242.392,77.7629 234.5,79.5C 240.476,76.1915 246.81,75.6915 253.5,78C 261.129,80.1394 266.796,84.6394 270.5,91.5 Z"/></g>
<g><path style="opacity:1" fill="#ef5424" d="M 270.5,91.5 C 270.445,97.3461 271.112,103.013 272.5,108.5C 272.265,112.32 271.432,115.987 270,119.5C 269.667,118.833 269.333,118.167 269,117.5C 268.505,119.473 268.338,121.473 268.5,123.5C 266.54,124.138 264.707,124.138 263,123.5C 262.605,126.207 262.105,128.873 261.5,131.5C 257.857,131.478 254.524,132.478 251.5,134.5C 246.88,135.493 242.214,135.827 237.5,135.5C 235.231,134.024 232.898,132.524 230.5,131C 228.963,129.89 228.297,128.39 228.5,126.5C 226.712,126.785 225.045,126.452 223.5,125.5C 221.235,123.24 219.235,120.906 217.5,118.5C 216.268,110.825 216.268,103.158 217.5,95.5C 217.5,95.1667 217.5,94.8333 217.5,94.5C 218.906,94.0269 219.573,93.0269 219.5,91.5C 223.167,88.5 226.5,85.1667 229.5,81.5C 230.78,80.0687 232.447,79.4021 234.5,79.5C 242.392,77.7629 250.058,78.4296 257.5,81.5C 262.165,84.5107 266.499,87.844 270.5,91.5 Z"/></g>
<g><path style="opacity:1" fill="#e78e73" d="M 229.5,81.5 C 226.5,85.1667 223.167,88.5 219.5,91.5C 221.833,87.1667 225.167,83.8333 229.5,81.5 Z"/></g>
<g><path style="opacity:0.255" fill="#f7c9b4" d="M 219.5,91.5 C 219.573,93.0269 218.906,94.0269 217.5,94.5C 217.427,92.9731 218.094,91.9731 219.5,91.5 Z"/></g>
<g><path style="opacity:1" fill="#e4866b" d="M 217.5,95.5 C 216.268,103.158 216.268,110.825 217.5,118.5C 215.894,114.966 214.894,111.133 214.5,107C 214.999,102.91 215.999,99.0766 217.5,95.5 Z"/></g>
<g><path style="opacity:0.984" fill="#243647" d="M 151.5,114.5 C 160.487,113.665 162.82,117.165 158.5,125C 154.543,127.385 151.376,126.552 149,122.5C 148.018,119.225 148.851,116.559 151.5,114.5 Z"/></g>
<g><path style="opacity:0.996" fill="#e7e7e7" d="M 96.5,118.5 C 113.224,119.622 118.557,127.955 112.5,143.5C 105.752,149.099 98.4182,149.933 90.5,146C 84.6093,139.944 83.4426,133.111 87,125.5C 89.529,122.115 92.6956,119.782 96.5,118.5 Z"/></g>
<g><path style="opacity:0.447" fill="#f0b99d" d="M 271.5,121.5 C 271.068,122.71 270.401,123.71 269.5,124.5C 269.285,122.821 269.952,121.821 271.5,121.5 Z"/></g>
<g><path style="opacity:1" fill="#e6724d" d="M 270.5,91.5 C 273.875,96.022 275.208,101.189 274.5,107C 274.918,112.18 273.918,117.014 271.5,121.5C 269.952,121.821 269.285,122.821 269.5,124.5C 267.431,127.573 264.764,129.906 261.5,131.5C 262.105,128.873 262.605,126.207 263,123.5C 264.707,124.138 266.54,124.138 268.5,123.5C 268.338,121.473 268.505,119.473 269,117.5C 269.333,118.167 269.667,118.833 270,119.5C 271.432,115.987 272.265,112.32 272.5,108.5C 271.112,103.013 270.445,97.3461 270.5,91.5 Z"/></g>
<g><path style="opacity:1" fill="#e87b5a" d="M 217.5,118.5 C 219.235,120.906 221.235,123.24 223.5,125.5C 225.045,126.452 226.712,126.785 228.5,126.5C 228.297,128.39 228.963,129.89 230.5,131C 232.898,132.524 235.231,134.024 237.5,135.5C 227.644,133.574 220.977,127.907 217.5,118.5 Z"/></g>
<g><path style="opacity:1" fill="#dfa08a" d="M 217.5,133.5 C 217.35,129.839 218.85,128.839 222,130.5C 222.08,133.877 220.58,134.877 217.5,133.5 Z"/></g>
<g><path style="opacity:1" fill="#df9b85" d="M 217.5,133.5 C 218.234,134.708 218.567,136.041 218.5,137.5C 216.833,137.5 215.167,137.5 213.5,137.5C 213.167,134.5 214.5,133.167 217.5,133.5 Z"/></g>
<g><path style="opacity:1" fill="#e48c6d" d="M 261.5,131.5 C 260.251,133.136 258.584,134.303 256.5,135C 250.044,137.689 243.71,137.856 237.5,135.5C 242.214,135.827 246.88,135.493 251.5,134.5C 254.524,132.478 257.857,131.478 261.5,131.5 Z"/></g>
<g><path style="opacity:0.976" fill="#e38f6f" d="M 213.5,137.5 C 215.167,141.833 213.833,143.167 209.5,141.5C 209.167,138.5 210.5,137.167 213.5,137.5 Z"/></g>
<g><path style="opacity:0.988" fill="#df8d80" d="M 209.5,141.5 C 209.5,143.167 209.5,144.833 209.5,146.5C 208.041,146.567 206.708,146.234 205.5,145.5C 205.167,142.5 206.5,141.167 209.5,141.5 Z"/></g>
<g><path style="opacity:0.937" fill="#9fa0a4" d="M 115.5,146.5 C 112.833,147.5 112.833,148.5 115.5,149.5C 114.791,150.404 113.791,150.737 112.5,150.5C 112.5,148.833 112.5,147.167 112.5,145.5C 113.791,145.263 114.791,145.596 115.5,146.5 Z"/></g>
<g><path style="opacity:1" fill="#e29d82" d="M 205.5,145.5 C 205.5,147.167 205.5,148.833 205.5,150.5C 204.041,150.567 202.708,150.234 201.5,149.5C 201.167,146.5 202.5,145.167 205.5,145.5 Z"/></g>
<g><path style="opacity:1" fill="#48494d" d="M 115.5,146.5 C 116.404,147.209 116.737,148.209 116.5,149.5C 116.167,149.5 115.833,149.5 115.5,149.5C 112.833,148.5 112.833,147.5 115.5,146.5 Z"/></g>
<g><path style="opacity:1" fill="#e19f88" d="M 201.5,149.5 C 202.844,153.471 201.511,154.805 197.5,153.5C 197.167,150.5 198.5,149.167 201.5,149.5 Z"/></g>
<g><path style="opacity:0.91" fill="#9d9ea3" d="M 116.5,149.5 C 117.791,149.263 118.791,149.596 119.5,150.5C 116.833,151.5 116.833,152.5 119.5,153.5C 118.791,154.404 117.791,154.737 116.5,154.5C 116.5,152.833 116.5,151.167 116.5,149.5 Z"/></g>
<g><path style="opacity:1" fill="#47494e" d="M 119.5,150.5 C 120.404,151.209 120.737,152.209 120.5,153.5C 120.167,153.5 119.833,153.5 119.5,153.5C 116.833,152.5 116.833,151.5 119.5,150.5 Z"/></g>
<g><path style="opacity:1" fill="#494a4d" d="M 123.5,154.5 C 124.833,155.5 124.833,156.5 123.5,157.5C 120.833,156.5 120.833,155.5 123.5,154.5 Z"/></g>
<g><path style="opacity:0.894" fill="#9c9ca1" d="M 120.5,153.5 C 121.791,153.263 122.791,153.596 123.5,154.5C 120.833,155.5 120.833,156.5 123.5,157.5C 122.791,158.404 121.791,158.737 120.5,158.5C 120.5,156.833 120.5,155.167 120.5,153.5 Z"/></g>
<g><path style="opacity:1" fill="#dd947a" d="M 197.5,153.5 C 198.877,156.58 197.877,158.08 194.5,158C 192.839,154.85 193.839,153.35 197.5,153.5 Z"/></g>
<g><path style="opacity:1" fill="#2a4f6e" d="M 265.5,151.5 C 269.571,151.234 273.571,151.567 277.5,152.5C 278.5,178.825 278.833,205.158 278.5,231.5C 273.57,231.803 268.737,231.469 264,230.5C 263.333,204.833 263.333,179.167 264,153.5C 264.717,152.956 265.217,152.289 265.5,151.5 Z"/></g>
<g><path style="opacity:1" fill="#244b6a" d="M 189.5,160.5 C 187.62,162.926 186.287,165.592 185.5,168.5C 183.122,169.688 180.622,170.688 178,171.5C 174.73,168.846 170.897,167.846 166.5,168.5C 146.897,168.938 138.064,178.938 140,198.5C 140.921,201.336 142.088,204.002 143.5,206.5C 144.413,208.086 144.413,209.586 143.5,211C 146.388,212.813 149.388,214.479 152.5,216C 159.167,216.667 165.833,216.667 172.5,216C 173.989,214.532 175.323,213.032 176.5,211.5C 178.167,210.167 179.833,210.167 181.5,211.5C 183.017,211.511 184.184,212.177 185,213.5C 187.286,216.104 189.119,218.937 190.5,222C 187.815,226.667 183.815,230 178.5,232C 164.984,237.254 151.984,236.421 139.5,229.5C 139.027,228.094 138.027,227.427 136.5,227.5C 121.614,216.691 115.781,202.024 119,183.5C 126.29,158.895 142.79,147.729 168.5,150C 176.819,151.144 183.819,154.644 189.5,160.5 Z"/></g>
<g><path style="opacity:1" fill="#486276" d="M 189.5,160.5 C 190.613,161.946 190.78,163.613 190,165.5C 186.651,169.016 183.151,172.349 179.5,175.5C 175.508,172.341 171.175,170.007 166.5,168.5C 170.897,167.846 174.73,168.846 178,171.5C 180.622,170.688 183.122,169.688 185.5,168.5C 186.287,165.592 187.62,162.926 189.5,160.5 Z"/></g>
<g><path style="opacity:1" fill="#e18265" d="M 55.5,181.5 C 55.8893,178.447 55.2227,175.78 53.5,173.5C 51.6208,172.659 49.6208,172.325 47.5,172.5C 46.8333,172.833 46.1667,173.167 45.5,173.5C 49.4359,169.335 53.2692,169.668 57,174.5C 57.6667,176.5 57.6667,178.5 57,180.5C 56.6174,181.056 56.1174,181.389 55.5,181.5 Z"/></g>
<g><path style="opacity:1" fill="#e36642" d="M 47.5,172.5 C 46.2763,175.505 46.2763,178.505 47.5,181.5C 49.396,182.466 51.396,182.799 53.5,182.5C 53.5,179.5 53.5,176.5 53.5,173.5C 55.2227,175.78 55.8893,178.447 55.5,181.5C 52.5312,185.104 49.1979,185.438 45.5,182.5C 44.7347,179.904 44.4013,177.237 44.5,174.5C 44.5,173.833 44.8333,173.5 45.5,173.5C 46.1667,173.167 46.8333,172.833 47.5,172.5 Z"/></g>
<g><path style="opacity:1" fill="#f05323" d="M 47.5,172.5 C 49.6208,172.325 51.6208,172.659 53.5,173.5C 53.5,176.5 53.5,179.5 53.5,182.5C 51.396,182.799 49.396,182.466 47.5,181.5C 46.2763,178.505 46.2763,175.505 47.5,172.5 Z"/></g>
<g><path style="opacity:1" fill="#254c6b" d="M 466.5,192.5 C 465.791,200.525 465.124,208.691 464.5,217C 464.846,219.214 466.012,220.714 468,221.5C 472.461,219.599 476.961,218.932 481.5,219.5C 482.16,221.816 482.827,224.149 483.5,226.5C 483.471,228.029 482.804,229.196 481.5,230C 476.454,231.72 471.287,232.887 466,233.5C 463.256,233.59 460.756,232.923 458.5,231.5C 457.71,230.206 456.71,229.039 455.5,228C 455.957,227.586 456.291,227.086 456.5,226.5C 454.993,225.611 453.66,224.611 452.5,223.5C 451.525,213.249 451.192,202.915 451.5,192.5C 449.143,192.663 446.81,192.497 444.5,192C 443.167,188 443.167,184 444.5,180C 446.81,179.503 449.143,179.337 451.5,179.5C 451.334,174.156 451.501,168.823 452,163.5C 456.737,162.531 461.57,162.197 466.5,162.5C 466.5,168.167 466.5,173.833 466.5,179.5C 471.179,179.334 475.845,179.501 480.5,180C 481.833,184 481.833,188 480.5,192C 475.845,192.499 471.179,192.666 466.5,192.5 Z"/></g>
<g><path style="opacity:0.698" fill="#f3b29e" d="M 44.5,174.5 C 44.4013,177.237 44.7347,179.904 45.5,182.5C 43.9735,181.508 43.3068,180.008 43.5,178C 43.5143,176.615 43.8476,175.449 44.5,174.5 Z"/></g>
<g><path style="opacity:1" fill="#204968" d="M 539.5,200.5 C 538.631,202.717 538.298,205.05 538.5,207.5C 526.5,207.5 514.5,207.5 502.5,207.5C 501.908,210.631 502.908,212.964 505.5,214.5C 507.695,216.424 510.028,218.091 512.5,219.5C 515.563,220.201 518.73,220.868 522,221.5C 524.448,219.309 527.282,217.976 530.5,217.5C 531.263,220.141 531.43,222.808 531,225.5C 518.992,234.175 507.825,233.508 497.5,223.5C 496.537,223.97 496.537,224.637 497.5,225.5C 491.452,220.411 488.452,213.745 488.5,205.5C 491.653,182.849 504.32,174.349 526.5,180C 534.762,184.359 539.095,191.193 539.5,200.5 Z M 524.5,196.5 C 518.25,198.459 511.584,199.126 504.5,198.5C 507.751,191.358 513.084,189.191 520.5,192C 522.384,193.049 523.718,194.549 524.5,196.5 Z"/></g>
<g><path style="opacity:1" fill="#687d91" d="M 584.5,182.5 C 585.124,182.917 585.457,183.584 585.5,184.5C 584.649,188.22 582.816,191.22 580,193.5C 578.541,193.192 577.374,192.525 576.5,191.5C 578.199,191.66 579.866,191.494 581.5,191C 580.167,189.16 580.334,188.66 582,189.5C 582.856,187.132 583.69,184.798 584.5,182.5 Z"/></g>
<g><path style="opacity:1" fill="#35556f" d="M 377.5,191.5 C 378.978,191.762 380.311,191.429 381.5,190.5C 380.282,189.197 380.615,188.197 382.5,187.5C 381.359,186.575 381.359,185.741 382.5,185C 381.552,184.517 380.552,184.351 379.5,184.5C 379.671,187.797 379.005,188.131 377.5,185.5C 374.189,186.744 370.856,186.744 367.5,185.5C 362.786,188.763 359.452,187.763 357.5,182.5C 355.929,181.691 354.262,181.357 352.5,181.5C 353.108,195.477 353.108,209.477 352.5,223.5C 354.308,223.491 355.975,223.991 357.5,225C 356.366,226.016 356.699,226.683 358.5,227C 359.793,227.49 361.127,227.657 362.5,227.5C 362.908,217.291 362.908,207.124 362.5,197C 363.032,194.98 364.365,194.147 366.5,194.5C 366.5,193.5 366.5,192.5 366.5,191.5C 367.791,191.263 368.791,191.596 369.5,192.5C 368.542,193.962 367.376,195.295 366,196.5C 365.667,207.833 365.333,219.167 365,230.5C 360.263,231.469 355.43,231.803 350.5,231.5C 350.5,214.167 350.5,196.833 350.5,179.5C 353.518,179.335 356.518,179.502 359.5,180C 360.147,181.609 360.98,183.109 362,184.5C 368.28,177.741 375.78,175.908 384.5,179C 385.624,179.839 386.291,181.006 386.5,182.5C 385.993,187.054 383.993,190.721 380.5,193.5C 379.261,193.058 378.261,192.391 377.5,191.5 Z"/></g>
<g><path style="opacity:1" fill="#194667" d="M 377.5,191.5 C 374.794,191.575 372.127,191.908 369.5,192.5C 368.791,191.596 367.791,191.263 366.5,191.5C 366.5,192.5 366.5,193.5 366.5,194.5C 364.365,194.147 363.032,194.98 362.5,197C 362.908,207.124 362.908,217.291 362.5,227.5C 361.127,227.657 359.793,227.49 358.5,227C 356.699,226.683 356.366,226.016 357.5,225C 355.975,223.991 354.308,223.491 352.5,223.5C 353.108,209.477 353.108,195.477 352.5,181.5C 354.262,181.357 355.929,181.691 357.5,182.5C 359.452,187.763 362.786,188.763 367.5,185.5C 370.856,186.744 374.189,186.744 377.5,185.5C 379.005,188.131 379.671,187.797 379.5,184.5C 380.552,184.351 381.552,184.517 382.5,185C 381.359,185.741 381.359,186.575 382.5,187.5C 380.615,188.197 380.282,189.197 381.5,190.5C 380.311,191.429 378.978,191.762 377.5,191.5 Z"/></g>
<g><path style="opacity:1" fill="#60788c" d="M 414.5,190.5 C 420.673,190.817 422.673,193.817 420.5,199.5C 420.706,194.884 418.706,191.884 414.5,190.5 Z"/></g>
<g><path style="opacity:1" fill="#e18464" d="M 94.5,203.5 C 91.8215,206.223 89.3215,205.889 87,202.5C 86.8071,196.854 89.3071,195.02 94.5,197C 95.8112,199.274 95.8112,201.44 94.5,203.5 Z"/></g>
<g><path style="opacity:0.596" fill="#8296a7" d="M 524.5,196.5 C 525.404,197.209 525.737,198.209 525.5,199.5C 518.313,199.825 511.313,199.491 504.5,198.5C 511.584,199.126 518.25,198.459 524.5,196.5 Z"/></g>
<g><path style="opacity:1" fill="#ec5528" d="M 94.5,203.5 C 90.062,204.575 88.062,202.908 88.5,198.5C 92.938,197.425 94.938,199.092 94.5,203.5 Z"/></g>
<g><path style="opacity:1" fill="#274d6b" d="M 224.5,177.5 C 245.619,177.111 254.952,187.278 252.5,208C 240.833,208.333 229.167,208.667 217.5,209C 220.483,217.497 226.483,220.83 235.5,219C 237.332,218.252 238.999,217.252 240.5,216C 242.167,215.333 243.833,215.333 245.5,216C 247.578,218.411 249.245,221.078 250.5,224C 245.232,230.594 238.232,233.761 229.5,233.5C 212.399,232.064 203.399,222.731 202.5,205.5C 203.193,190.715 210.526,181.382 224.5,177.5 Z M 238.5,196.5 C 232.25,198.459 225.584,199.126 218.5,198.5C 221.685,191.377 227.018,189.21 234.5,192C 236.07,193.397 237.404,194.897 238.5,196.5 Z"/></g>
<g><path style="opacity:0.592" fill="#7f92a1" d="M 238.5,196.5 C 239.404,197.209 239.737,198.209 239.5,199.5C 232.313,199.825 225.313,199.491 218.5,198.5C 225.584,199.126 232.25,198.459 238.5,196.5 Z"/></g>
<g><path style="opacity:0.794" fill="#50697e" d="M 336.5,189.5 C 338.694,191.221 339.861,193.555 340,196.5C 340.793,200.423 340.626,204.256 339.5,208C 327.838,208.5 316.171,208.667 304.5,208.5C 304.878,210.921 305.545,213.254 306.5,215.5C 305.292,214.766 303.959,214.433 302.5,214.5C 302.318,212.409 302.652,210.409 303.5,208.5C 315.184,207.771 326.85,207.104 338.5,206.5C 338.734,200.692 338.067,195.026 336.5,189.5 Z"/></g>
<g><path style="opacity:0.769" fill="#5a7183" d="M 539.5,200.5 C 539.986,202.952 539.986,205.618 539.5,208.5C 527.833,208.5 516.167,208.5 504.5,208.5C 504.517,210.565 504.85,212.565 505.5,214.5C 502.908,212.964 501.908,210.631 502.5,207.5C 514.5,207.5 526.5,207.5 538.5,207.5C 538.298,205.05 538.631,202.717 539.5,200.5 Z"/></g>
<g><path style="opacity:0.443" fill="#a4b6be" d="M 181.5,211.5 C 179.833,210.167 178.167,210.167 176.5,211.5C 176.791,210.351 177.624,209.684 179,209.5C 180.376,209.684 181.209,210.351 181.5,211.5 Z"/></g>
<g><path style="opacity:1" fill="#49657b" d="M 143.5,206.5 C 153.148,216.472 164.148,218.139 176.5,211.5C 175.323,213.032 173.989,214.532 172.5,216C 165.833,216.667 159.167,216.667 152.5,216C 149.388,214.479 146.388,212.813 143.5,211C 144.413,209.586 144.413,208.086 143.5,206.5 Z"/></g>
<g><path style="opacity:1" fill="#587086" d="M 466.5,192.5 C 466.334,200.84 466.5,209.173 467,217.5C 467.804,218.804 468.971,219.471 470.5,219.5C 473.118,218.627 475.784,217.961 478.5,217.5C 480.03,217.64 481.03,218.307 481.5,219.5C 476.961,218.932 472.461,219.599 468,221.5C 466.012,220.714 464.846,219.214 464.5,217C 465.124,208.691 465.791,200.525 466.5,192.5 Z"/></g>
<g><path style="opacity:1" fill="#254b6a" d="M 336.5,189.5 C 338.067,195.026 338.734,200.692 338.5,206.5C 326.85,207.104 315.184,207.771 303.5,208.5C 302.652,210.409 302.318,212.409 302.5,214.5C 303.959,214.433 305.292,214.766 306.5,215.5C 309.495,218.078 312.995,219.411 317,219.5C 321.684,219.16 326.017,217.827 330,215.5C 334.371,217.911 336.371,221.578 336,226.5C 321.45,236.61 307.783,235.61 295,223.5C 288.505,212.893 287.838,201.893 293,190.5C 304.487,175.963 317.987,173.797 333.5,184C 334.758,185.741 335.758,187.574 336.5,189.5 Z M 325.5,196.5 C 322.572,197.82 319.239,198.486 315.5,198.5C 312.167,198.167 308.833,197.833 305.5,197.5C 306.127,196.583 306.461,195.583 306.5,194.5C 313.587,188.74 319.92,189.406 325.5,196.5 Z"/></g>
<g><path style="opacity:0.597" fill="#778c9d" d="M 306.5,194.5 C 306.461,195.583 306.127,196.583 305.5,197.5C 308.833,197.833 312.167,198.167 315.5,198.5C 319.239,198.486 322.572,197.82 325.5,196.5C 326.404,197.209 326.737,198.209 326.5,199.5C 319.167,199.5 311.833,199.5 304.5,199.5C 304.077,197.219 304.744,195.552 306.5,194.5 Z"/></g>
<g><path style="opacity:1" fill="#284d6b" d="M 420.5,199.5 C 422.673,193.817 420.673,190.817 414.5,190.5C 409.513,191.165 404.513,191.832 399.5,192.5C 398.228,192.43 397.062,192.097 396,191.5C 395.003,188.199 394.67,184.866 395,181.5C 405.302,177.079 415.802,176.579 426.5,180C 429.728,181.563 431.895,184.063 433,187.5C 434.413,202.116 434.913,216.783 434.5,231.5C 431.428,231.817 428.428,231.484 425.5,230.5C 425.081,229.328 424.415,228.328 423.5,227.5C 414.181,234.813 404.515,235.313 394.5,229C 387.895,220.304 387.895,211.637 394.5,203C 402.662,198.467 411.329,197.301 420.5,199.5 Z M 420.5,216.5 C 418.833,217.5 417.5,218.833 416.5,220.5C 413.904,221.265 411.237,221.599 408.5,221.5C 403.611,217.759 403.277,213.592 407.5,209C 411.558,208.233 415.558,208.4 419.5,209.5C 420.474,211.743 420.808,214.076 420.5,216.5 Z"/></g>
<g><path style="opacity:0.984" fill="#88a2b5" d="M 416.5,220.5 C 415.508,222.026 414.008,222.693 412,222.5C 410.615,222.486 409.449,222.152 408.5,221.5C 411.237,221.599 413.904,221.265 416.5,220.5 Z"/></g>
<g><path style="opacity:0.718" fill="#9cafbd" d="M 420.5,216.5 C 420.167,218.833 418.833,220.167 416.5,220.5C 417.5,218.833 418.833,217.5 420.5,216.5 Z"/></g>
<g><path style="opacity:1" fill="#486379" d="M 497.5,225.5 C 496.537,224.637 496.537,223.97 497.5,223.5C 507.825,233.508 518.992,234.175 531,225.5C 531.43,222.808 531.263,220.141 530.5,217.5C 527.282,217.976 524.448,219.309 522,221.5C 518.73,220.868 515.563,220.201 512.5,219.5C 517.947,220.174 522.947,219.008 527.5,216C 528.833,215.333 530.167,215.333 531.5,216C 533.578,218.411 535.245,221.078 536.5,224C 534.683,227.251 532.016,229.585 528.5,231C 518.826,234.832 509.492,234.165 500.5,229C 498.937,228.241 497.937,227.074 497.5,225.5 Z"/></g>
<g><path style="opacity:1" fill="#60768a" d="M 452.5,223.5 C 453.66,224.611 454.993,225.611 456.5,226.5C 456.291,227.086 455.957,227.586 455.5,228C 456.71,229.039 457.71,230.206 458.5,231.5C 455.063,229.977 453.063,227.311 452.5,223.5 Z"/></g>
<g><path style="opacity:1" fill="#2a4e6c" d="M 584.5,182.5 C 583.69,184.798 582.856,187.132 582,189.5C 580.334,188.66 580.167,189.16 581.5,191C 579.866,191.494 578.199,191.66 576.5,191.5C 573.998,191.251 571.498,190.917 569,190.5C 563.555,190.864 562.721,192.697 566.5,196C 573.874,198.434 580.374,202.267 586,207.5C 590.644,223.489 584.477,231.822 567.5,232.5C 561.232,232.717 555.565,231.05 550.5,227.5C 549.386,226.277 549.219,224.944 550,223.5C 551.094,220.308 552.927,217.642 555.5,215.5C 560.309,219.089 565.643,220.256 571.5,219C 574.064,216.724 573.73,214.724 570.5,213C 563.524,210.798 557.357,207.298 552,202.5C 546.352,190.448 549.852,182.281 562.5,178C 569.004,177.07 575.338,177.736 581.5,180C 582.942,180.377 583.942,181.21 584.5,182.5 Z"/></g>
<g><path style="opacity:0.439" fill="#a2b7c4" d="M 136.5,227.5 C 138.027,227.427 139.027,228.094 139.5,229.5C 137.973,229.573 136.973,228.906 136.5,227.5 Z"/></g>
<g><path style="opacity:0.984" fill="#7077a0" d="M 120.5,231.5 C 120.5,230.167 120.5,228.833 120.5,227.5C 121.833,227.5 123.167,227.5 124.5,227.5C 124.833,230.5 123.5,231.833 120.5,231.5 Z"/></g>
<g><path style="opacity:0.49" fill="#8c91b7" d="M 120.5,231.5 C 120.5,232.833 120.5,234.167 120.5,235.5C 119.167,235.5 117.833,235.5 116.5,235.5C 116.5,234.167 116.5,232.833 116.5,231.5C 117.833,231.5 119.167,231.5 120.5,231.5 Z"/></g>
<g><path style="opacity:1" fill="#66666c" d="M 194.5,230.5 C 198.934,231.558 199.267,233.225 195.5,235.5C 193.296,234.218 192.962,232.551 194.5,230.5 Z"/></g>
<g><path style="opacity:1" fill="#7b8084" d="M 201.5,239.5 C 197.839,239.65 196.839,238.15 198.5,235C 201.759,235.082 202.759,236.582 201.5,239.5 Z"/></g>
<g><path style="opacity:0.725" fill="#8288ab" d="M 116.5,235.5 C 116.5,236.833 116.5,238.167 116.5,239.5C 115.167,239.5 113.833,239.5 112.5,239.5C 112.5,238.167 112.5,236.833 112.5,235.5C 113.833,235.5 115.167,235.5 116.5,235.5 Z"/></g>
<g><path style="opacity:1" fill="#0f2739" d="M 113.5,271.5 C 113.44,270.957 113.107,270.624 112.5,270.5C 111.749,271.376 111.249,272.376 111,273.5C 109.989,272.663 108.822,272.33 107.5,272.5C 107.5,274.167 107.5,275.833 107.5,277.5C 100.637,279.324 93.6368,279.824 86.5,279C 83.5986,277.124 80.5986,275.291 77.5,273.5C 76.7825,270.942 75.4491,270.275 73.5,271.5C 67.8595,263.99 67.1928,255.99 71.5,247.5C 72.9063,247.027 73.573,246.027 73.5,244.5C 82.9949,233.302 94.3282,231.135 107.5,238C 116.428,245.114 119.594,254.281 117,265.5C 116.284,267.879 115.117,269.879 113.5,271.5 Z"/></g>
<g><path style="opacity:1" fill="#74787a" d="M 205.5,243.5 C 202.5,243.833 201.167,242.5 201.5,239.5C 204.901,238.227 206.234,239.56 205.5,243.5 Z"/></g>
<g><path style="opacity:1" fill="#7c8083" d="M 209.5,247.5 C 206.5,247.833 205.167,246.5 205.5,243.5C 206.708,242.766 208.041,242.433 209.5,242.5C 209.5,244.167 209.5,245.833 209.5,247.5 Z"/></g>
<g><path style="opacity:0.251" fill="#bbc4cb" d="M 73.5,244.5 C 73.573,246.027 72.9063,247.027 71.5,247.5C 71.427,245.973 72.0937,244.973 73.5,244.5 Z"/></g>
<g><path style="opacity:1" fill="#7f8285" d="M 214.5,250.5 C 211.575,251.866 209.909,250.866 209.5,247.5C 212.808,245.716 214.475,246.716 214.5,250.5 Z"/></g>
<g><path style="opacity:0.998" fill="#e5e5e5" d="M 247.5,251.5 C 272.375,251.877 286.375,264.377 289.5,289C 286.923,311.744 274.257,324.244 251.5,326.5C 228.594,324.427 216.26,311.927 214.5,289C 215.934,267.909 226.934,255.409 247.5,251.5 Z"/></g>
<g><path style="opacity:0.965" fill="#7c8184" d="M 214.5,250.5 C 217.5,250.167 218.833,251.5 218.5,254.5C 217.833,254.5 217.5,254.833 217.5,255.5C 213.716,255.475 212.716,253.808 214.5,250.5 Z"/></g>
<g><path style="opacity:1" fill="#7d7f84" d="M 218.5,254.5 C 221.68,254.176 222.847,255.51 222,258.5C 218.85,260.161 217.35,259.161 217.5,255.5C 218.167,255.5 218.5,255.167 218.5,254.5 Z"/></g>
<g><path style="opacity:1" fill="#2b3d48" d="M 113.5,271.5 C 110.588,277.144 105.921,280.644 99.5,282C 89.3367,283.946 80.8367,281.112 74,273.5C 73.5357,272.906 73.369,272.239 73.5,271.5C 75.4491,270.275 76.7825,270.942 77.5,273.5C 80.5986,275.291 83.5986,277.124 86.5,279C 93.6368,279.824 100.637,279.324 107.5,277.5C 107.5,275.833 107.5,274.167 107.5,272.5C 108.822,272.33 109.989,272.663 111,273.5C 111.249,272.376 111.749,271.376 112.5,270.5C 113.107,270.624 113.44,270.957 113.5,271.5 Z"/></g>
<g><path style="opacity:1" fill="#192e3f" d="M 175.5,295.5 C 175.427,297.027 176.094,298.027 177.5,298.5C 180.21,305.212 178.543,310.712 172.5,315C 159.021,317.025 153.688,311.525 156.5,298.5C 157.906,298.027 158.573,297.027 158.5,295.5C 162.841,291.401 167.841,290.568 173.5,293C 174.381,293.708 175.047,294.542 175.5,295.5 Z"/></g>
<g><path style="opacity:0.667" fill="#7b878f" d="M 158.5,295.5 C 158.573,297.027 157.906,298.027 156.5,298.5C 156.427,296.973 157.094,295.973 158.5,295.5 Z"/></g>
<g><path style="opacity:0.549" fill="#8996a0" d="M 175.5,295.5 C 176.906,295.973 177.573,296.973 177.5,298.5C 176.094,298.027 175.427,297.027 175.5,295.5 Z"/></g>
</svg>
