<?xml version="1.0" encoding="UTF-8"?>
<!DOCTYPE svg PUBLIC "-//W3C//DTD SVG 1.1//EN" "http://www.w3.org/Graphics/SVG/1.1/DTD/svg11.dtd">
<svg xmlns="http://www.w3.org/2000/svg" version="1.1" width="2480px" height="704px" style="shape-rendering:geometricPrecision; text-rendering:geometricPrecision; image-rendering:optimizeQuality; fill-rule:evenodd; clip-rule:evenodd" xmlns:xlink="http://www.w3.org/1999/xlink">
<g><path style="opacity:0.939" fill="#db002a" d="M 97.5,96.5 C 111.079,96.177 124.579,96.5103 138,97.5C 190.667,196.167 243.333,294.833 296,393.5C 300.401,394.467 304.901,394.8 309.5,394.5C 309.14,295.167 308.807,195.833 308.5,96.5C 314.167,96.5 319.833,96.5 325.5,96.5C 325.5,201.167 325.5,305.833 325.5,410.5C 312.816,410.832 300.149,410.499 287.5,409.5C 235.088,310.341 182.421,211.341 129.5,112.5C 123.872,111.505 118.206,111.171 112.5,111.5C 112.5,211.167 112.5,310.833 112.5,410.5C 107.5,410.5 102.5,410.5 97.5,410.5C 97.5,305.833 97.5,201.167 97.5,96.5 Z"/></g>
<g><path style="opacity:0.918" fill="#0153a2" d="M 481.5,96.5 C 493.5,96.5 505.5,96.5 517.5,96.5C 553.833,201.167 590.167,305.833 626.5,410.5C 620.907,410.807 615.407,410.473 610,409.5C 576.025,310.575 541.859,211.742 507.5,113C 504.667,112.833 501.833,112.667 499,112.5C 495.724,112.558 492.724,113.224 490,114.5C 455.723,213.164 421.557,311.831 387.5,410.5C 382.833,410.5 378.167,410.5 373.5,410.5C 408.899,305.638 444.899,200.971 481.5,96.5 Z"/></g>
<g><path style="opacity:0.92" fill="#f94629" d="M 630.5,97.5 C 635.305,96.5128 640.305,96.1795 645.5,96.5C 671.676,196.204 698.009,295.87 724.5,395.5C 729.966,395.365 735.132,394.365 740,392.5C 765.784,294.53 791.95,196.696 818.5,99C 823.751,98.1963 828.918,98.363 834,99.5C 860.484,198.105 886.651,296.772 912.5,395.5C 918.303,396.087 923.803,395.42 929,393.5C 954.197,295.411 979.697,197.411 1005.5,99.5C 1006.33,99.1667 1007.17,98.8333 1008,98.5C 1012.13,99.3293 1016.29,99.6626 1020.5,99.5C 992.983,202.902 965.149,306.235 937,409.5C 925.247,410.488 913.414,410.821 901.5,410.5C 876.494,316.142 851.327,221.809 826,127.5C 800.667,221.5 775.333,315.5 750,409.5C 738.229,410.82 726.395,410.82 714.5,409.5C 686.474,305.389 658.474,201.389 630.5,97.5 Z"/></g>
<g><path style="opacity:0.918" fill="#53bc4b" d="M 1139.5,96.5 C 1151.5,96.5 1163.5,96.5 1175.5,96.5C 1211.83,201.167 1248.17,305.833 1284.5,410.5C 1278.91,410.807 1273.41,410.473 1268,409.5C 1234,310.833 1200,212.167 1166,113.5C 1163.09,112.855 1160.09,112.522 1157,112.5C 1153.72,112.558 1150.72,113.224 1148,114.5C 1113.53,213.092 1079.37,311.759 1045.5,410.5C 1040.49,410.666 1035.49,410.499 1030.5,410C 1066.94,305.526 1103.27,201.026 1139.5,96.5 Z"/></g>
<g><path style="opacity:0.922" fill="#04b1d3" d="M 1341.5,96.5 C 1404.17,96.8597 1466.84,97.6931 1529.5,99C 1557.12,105.957 1573.95,123.457 1580,151.5C 1580.57,219.844 1579.91,288.177 1578,356.5C 1573.65,376.025 1562.81,390.859 1545.5,401C 1539.07,404.549 1532.4,407.549 1525.5,410C 1464.17,410.5 1402.83,410.667 1341.5,410.5C 1341.5,405.5 1341.5,400.5 1341.5,395.5C 1401.5,395.667 1461.5,395.5 1521.5,395C 1537.08,390.81 1549.58,382.31 1559,369.5C 1561.22,365.719 1562.89,361.719 1564,357.5C 1565.45,290.173 1566.11,222.839 1566,155.5C 1560.67,133.971 1547.5,119.805 1526.5,113C 1464.87,111.519 1403.2,111.019 1341.5,111.5C 1341.5,106.5 1341.5,101.5 1341.5,96.5 Z"/></g>
<g><path style="opacity:0.918" fill="#04b1d3" d="M 1737.5,96.5 C 1749.75,96.1782 1761.91,96.5115 1774,97.5C 1810.4,201.538 1846.9,305.538 1883.5,409.5C 1880.67,409.833 1877.83,410.167 1875,410.5C 1871.72,410.442 1868.72,409.776 1866,408.5C 1832.53,310.425 1798.86,212.425 1765,114.5C 1762.28,113.224 1759.28,112.558 1756,112.5C 1752.91,112.522 1749.91,112.855 1747,113.5C 1712.47,212.092 1678.14,310.758 1644,409.5C 1639.26,410.469 1634.43,410.803 1629.5,410.5C 1665.7,305.908 1701.7,201.241 1737.5,96.5 Z"/></g>
<g><path style="opacity:0.936" fill="#04b1d3" d="M 1882.5,96.5 C 1961.5,96.4518 2040.5,96.7852 2119.5,97.5C 2119.5,102.167 2119.5,106.833 2119.5,111.5C 2082.5,111.5 2045.5,111.5 2008.5,111.5C 2008.28,211.17 2008.62,310.836 2009.5,410.5C 2004.57,410.803 1999.74,410.469 1995,409.5C 1994.5,310.167 1994.33,210.834 1994.5,111.5C 1957.16,111.738 1919.82,111.405 1882.5,110.5C 1882.5,105.833 1882.5,101.167 1882.5,96.5 Z"/></g>
<g><path style="opacity:0.919" fill="#04b1d3" d="M 2232.5,96.5 C 2244.5,96.5 2256.5,96.5 2268.5,96.5C 2304.83,201.167 2341.17,305.833 2377.5,410.5C 2371.91,410.807 2366.41,410.473 2361,409.5C 2327.03,310.575 2292.86,211.742 2258.5,113C 2252.84,112.501 2247.18,112.334 2241.5,112.5C 2207.44,211.169 2173.28,309.836 2139,408.5C 2134.48,410.407 2129.65,411.074 2124.5,410.5C 2159.92,305.648 2195.92,200.981 2232.5,96.5 Z"/></g>
<g><path style="opacity:0.953" fill="#acacaf" d="M 1356.5,489.5 C 1378.17,489.5 1399.83,489.5 1421.5,489.5C 1421.5,496.167 1421.5,502.833 1421.5,509.5C 1400.16,509.333 1378.83,509.5 1357.5,510C 1355.19,511.109 1353.69,512.943 1353,515.5C 1352.29,522.264 1352.79,528.931 1354.5,535.5C 1373.5,535.333 1392.5,535.5 1411.5,536C 1419.16,537.665 1424.33,542.165 1427,549.5C 1427.67,564.833 1427.67,580.167 1427,595.5C 1425.17,602.667 1420.67,607.167 1413.5,609C 1389.17,609.5 1364.84,609.667 1340.5,609.5C 1340.5,603.167 1340.5,596.833 1340.5,590.5C 1362.17,590.667 1383.84,590.5 1405.5,590C 1406.42,589.626 1407.25,589.126 1408,588.5C 1408.82,577.923 1408.65,567.423 1407.5,557C 1388.89,555.718 1370.22,555.052 1351.5,555C 1343.53,553.034 1338.03,548.201 1335,540.5C 1334.33,528.833 1334.33,517.167 1335,505.5C 1336.21,502.241 1338.04,499.408 1340.5,497C 1345.54,493.643 1350.88,491.143 1356.5,489.5 Z"/></g>
<g><path style="opacity:0.946" fill="#acacaf" d="M 1784.5,489.5 C 1790.5,489.5 1796.5,489.5 1802.5,489.5C 1802.93,511.164 1803.26,532.83 1803.5,554.5C 1803.64,568.232 1803.14,581.899 1802,595.5C 1799.5,602 1795,606.5 1788.5,609C 1778.5,609.167 1768.5,609.333 1758.5,609.5C 1746.79,609.611 1735.12,609.111 1723.5,608C 1718.06,606.231 1714.23,602.731 1712,597.5C 1710.52,561.895 1710.02,526.228 1710.5,490.5C 1716.17,490.5 1721.83,490.5 1727.5,490.5C 1727.33,521.168 1727.5,551.835 1728,582.5C 1728.5,586.02 1730.34,588.52 1733.5,590C 1749.17,590.667 1764.83,590.667 1780.5,590C 1782,589.167 1783.17,588 1784,586.5C 1784.5,554.168 1784.67,521.835 1784.5,489.5 Z"/></g>
<g><path style="opacity:0.95" fill="#acacaf" d="M 2312.5,489.5 C 2333.5,489.5 2354.5,489.5 2375.5,489.5C 2375.5,496.167 2375.5,502.833 2375.5,509.5C 2354.5,509.333 2333.5,509.5 2312.5,510C 2309.57,511.26 2307.74,513.427 2307,516.5C 2306.44,522.913 2306.94,529.247 2308.5,535.5C 2327.17,535.333 2345.84,535.5 2364.5,536C 2372.46,537.556 2377.96,542.056 2381,549.5C 2381.67,565.167 2381.67,580.833 2381,596.5C 2378.81,602.693 2374.64,606.859 2368.5,609C 2343.84,609.5 2319.17,609.667 2294.5,609.5C 2294.5,603.167 2294.5,596.833 2294.5,590.5C 2316.5,590.667 2338.5,590.5 2360.5,590C 2361,589.5 2361.5,589 2362,588.5C 2362.82,577.923 2362.65,567.423 2361.5,557C 2342.17,556.247 2322.84,555.581 2303.5,555C 2290.36,548.553 2285.36,538.053 2288.5,523.5C 2288.39,516.757 2288.89,510.09 2290,503.5C 2291.79,500.705 2293.96,498.205 2296.5,496C 2301.6,492.938 2306.94,490.771 2312.5,489.5 Z"/></g>
<g><path style="opacity:0.943" fill="#acacaf" d="M 1840.5,490.5 C 1868.83,490.5 1897.17,490.5 1925.5,490.5C 1925.5,497.167 1925.5,503.833 1925.5,510.5C 1914.83,510.5 1904.17,510.5 1893.5,510.5C 1892.79,543.162 1892.46,575.829 1892.5,608.5C 1886.17,608.5 1879.83,608.5 1873.5,608.5C 1873.5,575.833 1873.5,543.167 1873.5,510.5C 1862.5,510.5 1851.5,510.5 1840.5,510.5C 1840.5,503.833 1840.5,497.167 1840.5,490.5 Z"/></g>
<g><path style="opacity:0.938" fill="#acacaf" d="M 1962.5,490.5 C 1968.83,490.5 1975.17,490.5 1981.5,490.5C 1981.5,529.833 1981.5,569.167 1981.5,608.5C 1975.17,608.5 1968.83,608.5 1962.5,608.5C 1962.5,569.167 1962.5,529.833 1962.5,490.5 Z"/></g>
<g><path style="opacity:0.945" fill="#acacaf" d="M 2036.5,490.5 C 2057.17,490.333 2077.84,490.5 2098.5,491C 2107.09,492.252 2112.59,497.085 2115,505.5C 2115.67,534.833 2115.67,564.167 2115,593.5C 2112.93,600.573 2108.43,605.406 2101.5,608C 2080.5,608.667 2059.5,608.667 2038.5,608C 2030.33,605.167 2024.83,599.667 2022,591.5C 2021.33,563.5 2021.33,535.5 2022,507.5C 2023.47,498.868 2028.31,493.202 2036.5,490.5 Z M 2043.5,508.5 C 2060.17,508.333 2076.84,508.5 2093.5,509C 2094,509.5 2094.5,510 2095,510.5C 2096.15,523.576 2096.65,536.742 2096.5,550C 2096.5,562.74 2096.16,575.407 2095.5,588C 2078.5,588.667 2061.5,588.667 2044.5,588C 2043.67,587.167 2042.83,586.333 2042,585.5C 2040.35,560.921 2040.02,536.254 2041,511.5C 2041.7,510.309 2042.53,509.309 2043.5,508.5 Z"/></g>
<g><path style="opacity:0.945" fill="#acacaf" d="M 2153.5,490.5 C 2159.21,490.171 2164.87,490.505 2170.5,491.5C 2189.67,518.5 2208.83,545.5 2228,572.5C 2228.4,545.163 2228.9,517.829 2229.5,490.5C 2234.83,490.5 2240.17,490.5 2245.5,490.5C 2246.29,530.162 2246.96,569.828 2247.5,609.5C 2241.79,609.829 2236.13,609.495 2230.5,608.5C 2211.8,581.637 2193.3,554.637 2175,527.5C 2173.99,526.663 2172.82,526.33 2171.5,526.5C 2171.49,554.172 2171.82,581.839 2172.5,609.5C 2166.17,609.5 2159.83,609.5 2153.5,609.5C 2153.5,569.833 2153.5,530.167 2153.5,490.5 Z"/></g>
<g><path style="opacity:0.957" fill="#acacaf" d="M 1481.5,491.5 C 1503.17,491.333 1524.84,491.5 1546.5,492C 1554,494.167 1558.83,499 1561,506.5C 1561.67,535.833 1561.67,565.167 1561,594.5C 1558.83,602 1554,606.833 1546.5,609C 1526.17,609.667 1505.83,609.667 1485.5,609C 1476.33,606.5 1470.5,600.667 1468,591.5C 1467.33,563.833 1467.33,536.167 1468,508.5C 1469.41,500.268 1473.91,494.601 1481.5,491.5 Z M 1489.5,509.5 C 1506.17,509.333 1522.84,509.5 1539.5,510C 1540.33,510.833 1541.17,511.667 1542,512.5C 1543.15,525.242 1543.65,538.075 1543.5,551C 1543.33,563.167 1543.17,575.333 1543,587.5C 1542.5,588 1542,588.5 1541.5,589C 1524.83,589.667 1508.17,589.667 1491.5,589C 1489.19,587.891 1487.69,586.057 1487,583.5C 1486.33,559.833 1486.33,536.167 1487,512.5C 1487.7,511.309 1488.53,510.309 1489.5,509.5 Z"/></g>
<g><path style="opacity:0.959" fill="#acacaf" d="M 1602.5,491.5 C 1608.17,491.5 1613.83,491.5 1619.5,491.5C 1620.37,524.158 1620.7,556.825 1620.5,589.5C 1638.83,589.5 1657.17,589.5 1675.5,589.5C 1675.5,596.167 1675.5,602.833 1675.5,609.5C 1651.17,609.5 1626.83,609.5 1602.5,609.5C 1602.5,570.167 1602.5,530.833 1602.5,491.5 Z"/></g>
</svg>
